<svg xmlns="http://www.w3.org/2000/svg" width="1200" height="675" viewBox="0 0 1200 675"><rect width="1200" height="675" fill="#101910"/><g stroke="#243724" stroke-width="1"><path d="M0 135h1200M0 270h1200M0 405h1200M0 540h1200M150 0v675M300 0v675M450 0v675M600 0v675M750 0v675M900 0v675M1050 0v675"/></g><rect x="200" y="112" width="800" height="450" rx="16" fill="#080a08" stroke="#506850"/><path d="M200 166h800" stroke="#506850"/><g fill="#66ff33"><circle cx="229" cy="139" r="5"/><circle cx="249" cy="139" r="5"/><circle cx="269" cy="139" r="5"/></g><text x="254" y="226" fill="#b7c2b7" font-size="18" font-family="monospace">INTERFACE STUDY</text><text x="250" y="326" fill="#f2f5f2" font-size="64" font-family="system-ui,sans-serif" font-weight="700">Ideas into interfaces.</text><text x="254" y="376" fill="#b7c2b7" font-size="22" font-family="monospace">DESIGN → BUILD → ITERATE</text><rect x="254" y="428" width="162" height="46" rx="6" fill="#66ff33"/><text x="282" y="458" fill="#080a08" font-size="18" font-family="monospace">EXPLORE</text><path d="M840 414l38 23-38 23m-22-46l-17 46" stroke="#66ff33" stroke-width="4" fill="none"/></svg>
